<svg preserveAspectRatio="xMidYMid meet" viewBox="6.883720930232558 11.078000000000001 134.99741602067184 170.372" xmlns="http://www.w3.org/2000/svg" version="1.1" style="max-height: 500px" width="134.99741602067184" height="170.372">
<path transform="translate(0,0)" fill="#F4F4F4" d="M0 0 C48.84 0 97.68 0 148 0 C148 63.03 148 126.06 148 191 C99.16 191 50.32 191 0 191 C0 127.97 0 64.94 0 0 Z"/>
<path transform="translate(35,11)" fill="#088C41" d="M0 0 C22.948 -0.144 45.848 0.207 68.784 0.927 C72.782 1.052 76.779 1.17 80.777 1.289 C88.518 1.52 96.259 1.758 104 2 C105.281 5.842 104.505 8.796 103.742 12.66 C103.597 13.406 103.452 14.152 103.303 14.92 C102.993 16.495 102.678 18.069 102.359 19.643 C101.877 22.053 101.426 24.468 100.977 26.885 C100.671 28.414 100.364 29.944 100.055 31.473 C99.924 32.197 99.794 32.921 99.659 33.667 C99.226 35.699 99.226 35.699 98 39 C94.839 40.938 91.564 41.359 87.918 41.852 C86.987 41.98 86.055 42.109 85.096 42.242 C84.136 42.369 83.176 42.495 82.188 42.625 C81.208 42.759 80.229 42.893 79.221 43.031 C76.815 43.36 74.408 43.683 72 44 C70.141 48.093 69.366 52.122 68.746 56.539 C68.64 57.261 68.535 57.982 68.426 58.725 C68.203 60.25 67.984 61.774 67.768 63.299 C67.441 65.598 67.105 67.895 66.768 70.191 C65.853 76.482 64.973 82.746 64.473 89.086 C64.172 92.778 63.529 96.174 62.544 99.758 C61.29 104.928 60.655 110.241 59.875 115.5 C59.256 119.625 58.638 123.75 58 128 C66.58 128 75.16 128 84 128 C83.248 135.522 82.309 142.817 81.062 150.25 C80.893 151.299 80.723 152.349 80.549 153.43 C80.379 154.448 80.21 155.466 80.035 156.516 C79.884 157.426 79.734 158.336 79.578 159.274 C78.949 162.241 77.959 165.123 77 168 C43.34 168 9.68 168 -25 168 C-21.957 129.957 -21.957 129.957 -20 128 C-18.148 127.842 -16.291 127.749 -14.434 127.684 C-13.309 127.642 -12.184 127.6 -11.025 127.557 C-9.841 127.517 -8.657 127.478 -7.438 127.438 C-6.25 127.394 -5.062 127.351 -3.838 127.307 C-0.892 127.2 2.054 127.098 5 127 C5.193 125.949 5.387 124.899 5.586 123.816 C5.849 122.398 6.112 120.98 6.375 119.562 C6.501 118.875 6.628 118.187 6.758 117.479 C7.419 113.925 8.13 110.396 8.949 106.875 C10.398 100.448 11.382 93.938 12.438 87.438 C15.116 71.09 15.116 71.09 16.688 63 C18.033 56.027 19.052 49.038 20 42 C18.872 41.962 18.872 41.962 17.721 41.924 C14.335 41.808 10.949 41.686 7.562 41.562 C5.786 41.504 5.786 41.504 3.975 41.443 C2.288 41.381 2.288 41.381 0.566 41.316 C-0.476 41.28 -1.518 41.243 -2.592 41.205 C-5 41 -5 41 -6 40 C-6.22 35.875 -5.742 32.413 -4.688 28.438 C-2.402 19.077 -1.286 9.538 0 0 Z"/>
<path transform="translate(35,11)" fill="#141D14" d="M0 0 C22.948 -0.144 45.848 0.207 68.784 0.927 C72.782 1.052 76.779 1.17 80.777 1.289 C88.518 1.52 96.259 1.758 104 2 C105.281 5.842 104.505 8.796 103.742 12.66 C103.597 13.406 103.452 14.152 103.303 14.92 C102.993 16.495 102.678 18.069 102.359 19.643 C101.877 22.053 101.426 24.468 100.977 26.885 C100.671 28.414 100.364 29.944 100.055 31.473 C99.924 32.197 99.794 32.921 99.659 33.667 C99.226 35.699 99.226 35.699 98 39 C94.839 40.938 91.564 41.359 87.918 41.852 C86.987 41.98 86.055 42.109 85.096 42.242 C84.136 42.369 83.176 42.495 82.188 42.625 C81.208 42.759 80.229 42.893 79.221 43.031 C76.815 43.36 74.408 43.683 72 44 C70.141 48.093 69.366 52.122 68.746 56.539 C68.64 57.261 68.535 57.982 68.426 58.725 C68.203 60.25 67.984 61.774 67.768 63.299 C67.441 65.598 67.105 67.895 66.768 70.191 C65.853 76.482 64.973 82.746 64.473 89.086 C64.172 92.778 63.529 96.174 62.544 99.758 C61.29 104.928 60.655 110.241 59.875 115.5 C59.256 119.625 58.638 123.75 58 128 C66.58 128 75.16 128 84 128 C83.248 135.522 82.309 142.817 81.062 150.25 C80.893 151.299 80.723 152.349 80.549 153.43 C80.379 154.448 80.21 155.466 80.035 156.516 C79.884 157.426 79.734 158.336 79.578 159.274 C78.949 162.241 77.959 165.123 77 168 C43.34 168 9.68 168 -25 168 C-21.957 129.957 -21.957 129.957 -20 128 C-18.148 127.842 -16.291 127.749 -14.434 127.684 C-13.309 127.642 -12.184 127.6 -11.025 127.557 C-9.841 127.517 -8.657 127.478 -7.438 127.438 C-6.25 127.394 -5.062 127.351 -3.838 127.307 C-0.892 127.2 2.054 127.098 5 127 C5.193 125.949 5.387 124.899 5.586 123.816 C5.849 122.398 6.112 120.98 6.375 119.562 C6.501 118.875 6.628 118.187 6.758 117.479 C7.419 113.925 8.13 110.396 8.949 106.875 C10.398 100.448 11.382 93.938 12.438 87.438 C15.116 71.09 15.116 71.09 16.688 63 C18.033 56.027 19.052 49.038 20 42 C18.872 41.962 18.872 41.962 17.721 41.924 C14.335 41.808 10.949 41.686 7.562 41.562 C5.786 41.504 5.786 41.504 3.975 41.443 C2.288 41.381 2.288 41.381 0.566 41.316 C-0.476 41.28 -1.518 41.243 -2.592 41.205 C-5 41 -5 41 -6 40 C-6.22 35.875 -5.742 32.413 -4.688 28.438 C-2.402 19.077 -1.286 9.538 0 0 Z M7 6 C5.495 11.027 4.295 16.034 3.312 21.188 C3.099 22.235 3.099 22.235 2.881 23.303 C1.875 28.231 1.875 28.231 3 33 C5.707 34.353 8.041 34.227 11.062 34.375 C16.88 34.769 21.583 35.888 27 38 C26.879 38.525 26.758 39.049 26.633 39.59 C25.482 44.91 24.709 50.216 24.125 55.625 C23.308 63.038 22.207 70.391 21 77.75 C20.834 78.786 20.668 79.822 20.497 80.889 C20.333 81.869 20.169 82.85 20 83.859 C19.856 84.73 19.711 85.602 19.562 86.499 C19 89 19 89 17.986 91.51 C16.975 94.063 16.551 96.265 16.219 98.984 C16.099 99.92 15.979 100.856 15.855 101.82 C15.738 102.787 15.621 103.754 15.5 104.75 C14.35 114.074 12.682 122.995 10 132 C3.177 133.882 -2.987 134.148 -10.059 133.973 C-12.934 133.784 -12.934 133.784 -15 135 C-15.196 139.145 -15.38 143.291 -15.562 147.438 C-15.619 148.622 -15.675 149.806 -15.732 151.025 C-15.781 152.15 -15.829 153.275 -15.879 154.434 C-15.926 155.476 -15.973 156.518 -16.022 157.592 C-16.282 159.952 -16.282 159.952 -15 161 C-12.41 161.122 -9.846 161.179 -7.255 161.193 C-6.443 161.201 -5.632 161.209 -4.796 161.218 C-2.098 161.243 0.599 161.259 3.297 161.273 C4.676 161.281 4.676 161.281 6.083 161.29 C10.952 161.316 15.821 161.336 20.689 161.35 C25.721 161.367 30.753 161.412 35.784 161.462 C39.65 161.496 43.516 161.508 47.381 161.513 C49.236 161.52 51.091 161.535 52.945 161.559 C55.543 161.591 58.139 161.591 60.737 161.583 C61.503 161.6 62.269 161.616 63.058 161.633 C67.034 161.587 68.801 161.159 71.947 158.647 C74.22 155.717 74.995 153.611 75.75 150 C75.972 148.989 76.193 147.979 76.422 146.938 C76.613 145.968 76.803 144.999 77 144 C77.226 143.098 77.451 142.195 77.684 141.266 C78.294 138.841 78.294 138.841 76.312 136.75 C71.189 132.873 65.459 134.075 59.312 134.355 C56 134 56 134 53.562 131.988 C53.047 131.332 52.531 130.676 52 130 C52.99 128.515 52.99 128.515 54 127 C54.439 124.814 54.439 124.814 54.598 122.402 C54.677 121.519 54.756 120.635 54.838 119.725 C54.912 118.805 54.986 117.885 55.062 116.938 C55.217 115.113 55.374 113.289 55.535 111.465 C55.601 110.657 55.667 109.848 55.735 109.015 C56 107 56 107 57 105 C57.204 103.003 57.365 101.002 57.5 99 C57.889 93.222 57.889 93.222 59 91 C59.304 88.775 59.567 86.545 59.812 84.312 C60.501 78.237 61.484 72.265 62.62 66.258 C64.919 54.232 64.919 54.232 64.066 42.109 C64 40 64 40 65.266 38.246 C68.957 35.594 73.564 35.986 77.938 36.125 C83.291 36.146 87.69 35.039 91.766 31.441 C96.313 26.132 97.918 19.942 98 13 C95.416 9.124 93.066 8.472 88.626 7.458 C86.138 7.024 83.824 6.844 81.303 6.795 C80.395 6.775 79.487 6.755 78.551 6.734 C77.575 6.718 76.599 6.701 75.594 6.684 C74.568 6.663 73.542 6.642 72.486 6.62 C69.157 6.555 65.829 6.496 62.5 6.438 C60.226 6.395 57.952 6.352 55.678 6.309 C39.451 6.013 23.23 5.862 7 6 Z"/>
<path transform="translate(61.73046875,15.0859375)" fill="#074A0D" d="M0 0 C1.839 0.032 1.839 0.032 3.716 0.064 C6.311 0.111 8.905 0.159 11.5 0.211 C15.399 0.288 19.298 0.356 23.197 0.422 C30.556 0.553 37.912 0.723 45.27 0.914 C46.887 0.953 46.887 0.953 48.538 0.992 C51.466 1.067 54.393 1.162 57.32 1.266 C58.165 1.286 59.01 1.306 59.881 1.327 C64.4 1.514 67.679 1.867 71.27 4.914 C72.082 8.602 72.082 8.602 72.27 11.914 C70.27 8.914 70.27 8.914 69.27 6.914 C64.5 4.662 59.816 3.812 54.572 3.709 C53.21 3.679 53.21 3.679 51.821 3.648 C50.845 3.632 49.869 3.615 48.863 3.598 C47.838 3.577 46.812 3.556 45.755 3.535 C42.427 3.469 39.098 3.41 35.77 3.352 C33.496 3.309 31.222 3.266 28.948 3.223 C12.72 2.927 -3.5 2.776 -19.73 2.914 C-20.401 6.517 -21.067 10.122 -21.73 13.727 C-21.921 14.751 -22.112 15.775 -22.309 16.83 C-22.489 17.813 -22.67 18.796 -22.855 19.809 C-23.023 20.715 -23.191 21.621 -23.363 22.554 C-23.807 25.01 -23.807 25.01 -23.73 27.914 C-20.173 29.693 -16.016 29.323 -12.09 29.535 C-8.694 29.918 -5.886 30.612 -2.73 31.914 C-2.4 32.574 -2.07 33.234 -1.73 33.914 C-1.07 33.914 -0.41 33.914 0.27 33.914 C-0.65 46.346 -2.191 58.62 -4.23 70.914 C-4.338 71.573 -4.445 72.232 -4.556 72.911 C-4.868 74.809 -5.19 76.705 -5.512 78.602 C-5.791 80.247 -5.791 80.247 -6.076 81.926 C-6.7 84.775 -7.645 87.217 -8.73 89.914 C-9.048 91.565 -9.308 93.229 -9.512 94.898 C-9.632 95.834 -9.751 96.77 -9.875 97.734 C-9.992 98.701 -10.11 99.668 -10.23 100.664 C-11.074 107.508 -11.948 114.243 -13.73 120.914 C-14.72 121.409 -14.72 121.409 -15.73 121.914 C-15.145 113.938 -14.015 106.157 -12.605 98.289 C-12.395 97.079 -12.184 95.868 -11.967 94.621 C-10.761 87.704 -9.529 80.792 -8.279 73.882 C-7.607 70.152 -6.946 66.42 -6.287 62.687 C-5.959 60.844 -5.625 59.001 -5.286 57.16 C-4.808 54.559 -4.348 51.956 -3.891 49.352 C-3.743 48.573 -3.595 47.794 -3.443 46.991 C-2.71 42.699 -2.447 39.715 -4.73 35.914 C-7.519 34.055 -8.539 33.602 -11.672 33.133 C-12.42 33.013 -13.168 32.893 -13.939 32.77 C-15.512 32.532 -17.085 32.295 -18.658 32.059 C-24.528 31.117 -24.528 31.117 -26.73 28.914 C-26.626 25.998 -26.403 23.237 -26.043 20.352 C-25.947 19.538 -25.851 18.724 -25.752 17.885 C-24.008 4.191 -24.008 4.191 -20.73 0.914 C-13.809 -0.289 -7.005 -0.144 0 0 Z M-31.73 27.914 C-31.4 27.914 -31.07 27.914 -30.73 27.914 C-30.73 29.894 -30.73 31.874 -30.73 33.914 C-22.15 34.574 -13.57 35.234 -4.73 35.914 C-5.06 37.234 -5.39 38.554 -5.73 39.914 C-6.06 39.254 -6.39 38.594 -6.73 37.914 C-7.859 37.876 -7.859 37.876 -9.01 37.838 C-12.396 37.723 -15.782 37.6 -19.168 37.477 C-20.352 37.437 -21.536 37.398 -22.756 37.357 C-24.443 37.295 -24.443 37.295 -26.164 37.23 C-27.206 37.194 -28.248 37.157 -29.322 37.119 C-31.73 36.914 -31.73 36.914 -32.73 35.914 C-32.966 30.385 -32.966 30.385 -31.73 27.914 Z M-16.73 121.914 C-16.4 121.914 -16.07 121.914 -15.73 121.914 C-15.543 124.789 -15.543 124.789 -15.73 127.914 C-21.232 131.582 -27.761 131.052 -34.168 130.977 C-36.664 130.956 -39.159 130.935 -41.73 130.914 C-41.73 139.164 -41.73 147.414 -41.73 155.914 C-30.83 156.004 -19.93 156.078 -9.029 156.121 C-3.968 156.142 1.093 156.171 6.155 156.216 C11.037 156.259 15.919 156.283 20.802 156.294 C22.666 156.301 24.531 156.315 26.396 156.337 C29.004 156.366 31.61 156.37 34.218 156.368 C34.993 156.383 35.767 156.397 36.566 156.412 C38.961 156.439 38.961 156.439 42.27 155.914 C44.177 154.009 44.177 154.009 45.27 151.914 C45.93 151.914 46.59 151.914 47.27 151.914 C47.6 148.614 47.93 145.314 48.27 141.914 C48.6 141.914 48.93 141.914 49.27 141.914 C49.923 148.186 49.142 152.108 45.656 157.383 C44.27 158.914 44.27 158.914 41.27 159.914 C38.593 160.01 35.942 160.05 33.266 160.043 C32.451 160.045 31.636 160.047 30.796 160.049 C28.1 160.053 25.403 160.05 22.707 160.047 C20.835 160.048 18.963 160.049 17.092 160.05 C13.167 160.051 9.243 160.049 5.319 160.044 C0.285 160.039 -4.749 160.042 -9.783 160.048 C-13.648 160.052 -17.514 160.05 -21.379 160.048 C-23.236 160.047 -25.092 160.048 -26.949 160.05 C-29.541 160.053 -32.134 160.049 -34.727 160.043 C-35.497 160.045 -36.266 160.048 -37.06 160.05 C-40.22 160.037 -42.709 159.921 -45.73 158.914 C-47.347 149.431 -47.031 138.691 -42.73 129.914 C-40.214 128.656 -38.318 128.706 -35.504 128.598 C-33.957 128.535 -33.957 128.535 -32.379 128.471 C-31.299 128.431 -30.218 128.392 -29.105 128.352 C-28.017 128.308 -26.93 128.265 -25.809 128.221 C-23.116 128.114 -20.423 128.012 -17.73 127.914 C-17.4 125.934 -17.07 123.954 -16.73 121.914 Z"/>
<path transform="translate(97,46)" fill="#1BD771" d="M0 0 C0.66 0.33 1.32 0.66 2 1 C1.658 1.557 1.317 2.114 0.965 2.688 C-0.213 5.51 0.068 7.005 0.562 10 C1.02 14.038 0.921 17.04 -0.246 20.922 C-2.623 29.85 -3.822 38.976 -5.162 48.107 C-5.622 51.23 -6.096 54.351 -6.57 57.473 C-8.243 68.649 -9.576 79.701 -10 91 C-10.99 90.67 -11.98 90.34 -13 90 C-12.01 93.3 -11.02 96.6 -10 100 C-14 99 -14 99 -15.701 97.215 C-20.016 89.859 -17.617 79.896 -16.438 71.938 C-16.169 70.04 -16.169 70.04 -15.895 68.105 C-15.497 65.297 -15.091 62.491 -14.68 59.686 C-14.063 55.462 -13.473 51.235 -12.886 47.007 C-12.372 43.312 -11.849 39.618 -11.325 35.925 C-11.069 34.114 -10.815 32.302 -10.563 30.491 C-10.205 27.924 -9.836 25.358 -9.465 22.793 C-9.362 22.038 -9.259 21.283 -9.152 20.504 C-7.954 12.401 -6.45 5.404 0 0 Z M-2 9 C-1 12 -1 12 -1 12 Z"/>
<path transform="translate(45,137)" fill="#093C09" d="M0 0 C0.33 0 0.66 0 1 0 C1.188 2.875 1.188 2.875 1 6 C-4.502 9.668 -11.03 9.138 -17.438 9.062 C-19.933 9.042 -22.429 9.021 -25 9 C-25 17.25 -25 25.5 -25 34 C-14.1 34.09 -3.199 34.164 7.701 34.207 C12.763 34.228 17.824 34.256 22.885 34.302 C27.767 34.345 32.65 34.369 37.532 34.38 C39.397 34.387 41.262 34.401 43.126 34.423 C45.734 34.452 48.341 34.456 50.948 34.454 C51.723 34.468 52.498 34.483 53.296 34.498 C55.691 34.525 55.691 34.525 59 34 C60.907 32.095 60.907 32.095 62 30 C62.66 30 63.32 30 64 30 C64.33 26.7 64.66 23.4 65 20 C65.33 20 65.66 20 66 20 C66.653 26.272 65.872 30.193 62.387 35.469 C61 37 61 37 58 38 C55.323 38.096 52.673 38.136 49.996 38.129 C49.181 38.131 48.366 38.133 47.527 38.135 C44.83 38.139 42.134 38.136 39.438 38.133 C37.566 38.133 35.694 38.134 33.822 38.136 C29.898 38.137 25.974 38.135 22.05 38.13 C17.016 38.125 11.982 38.128 6.948 38.134 C3.082 38.138 -0.783 38.136 -4.649 38.134 C-6.505 38.133 -8.362 38.134 -10.218 38.136 C-12.811 38.139 -15.403 38.135 -17.996 38.129 C-18.766 38.131 -19.536 38.133 -20.329 38.136 C-23.49 38.123 -25.979 38.007 -29 37 C-30.617 27.517 -30.3 16.777 -26 8 C-23.483 6.742 -21.587 6.792 -18.773 6.684 C-17.227 6.621 -17.227 6.621 -15.648 6.557 C-14.568 6.517 -13.488 6.478 -12.375 6.438 C-11.287 6.394 -10.199 6.351 -9.078 6.307 C-6.386 6.2 -3.693 6.098 -1 6 C-0.67 4.02 -0.34 2.04 0 0 Z"/>
<path transform="translate(21,147)" fill="#16B95D" d="M0 0 C5.61 0 11.22 0 17 0 C17 0.33 17 0.66 17 1 C16.157 1.121 15.314 1.242 14.445 1.367 C13.35 1.535 12.254 1.702 11.125 1.875 C10.034 2.037 8.944 2.2 7.82 2.367 C4.881 2.763 4.881 2.763 3 5 C2.002 8.633 1.892 12.06 1.938 15.812 C1.947 16.788 1.956 17.764 1.965 18.77 C1.976 19.506 1.988 20.242 2 21 C2.92 21.01 3.841 21.021 4.789 21.031 C13.456 21.129 22.123 21.232 30.79 21.339 C35.246 21.395 39.702 21.448 44.157 21.497 C48.456 21.545 52.755 21.597 57.054 21.653 C58.695 21.673 60.337 21.692 61.978 21.709 C64.274 21.733 66.57 21.763 68.866 21.795 C70.174 21.81 71.482 21.826 72.83 21.842 C76 22 76 22 79 23 C79 23.66 79 24.32 79 25 C68.587 25.023 58.173 25.041 47.76 25.052 C42.925 25.057 38.09 25.064 33.255 25.075 C28.593 25.086 23.931 25.092 19.269 25.095 C17.487 25.097 15.704 25.1 13.921 25.106 C11.433 25.113 8.945 25.114 6.457 25.114 C5.341 25.119 5.341 25.119 4.201 25.124 C-0.886 25.114 -0.886 25.114 -2 24 C-1.934 21.277 -1.807 18.59 -1.625 15.875 C-1.581 15.127 -1.537 14.38 -1.492 13.609 C-1.203 8.998 -0.658 4.606 0 0 Z"/>
<path transform="translate(42,19)" fill="#1ACD6B" d="M0 0 C27.681 -0.165 55.328 0.301 83 1 C80.378 3.969 80.378 3.969 76.974 4.249 C75.729 4.191 74.485 4.134 73.203 4.074 C72.513 4.048 71.824 4.021 71.113 3.993 C69.612 3.934 68.112 3.869 66.612 3.797 C62.572 3.609 58.53 3.483 54.488 3.348 C53.642 3.318 52.796 3.289 51.925 3.258 C42.965 2.95 34.005 2.737 25.04 2.655 C23.307 2.635 21.575 2.606 19.842 2.566 C17.414 2.513 14.987 2.491 12.559 2.477 C11.835 2.454 11.112 2.431 10.367 2.408 C8.114 2.361 8.114 2.361 5 3 C0.605 8.44 0.887 14.334 1 21 C4.3 21.99 7.6 22.98 11 24 C11 24.33 11 24.66 11 25 C6.05 25 1.1 25 -4 25 C-5.106 20.577 -4.564 17.414 -3.688 13.062 C-3.491 12.008 -3.491 12.008 -3.291 10.932 C-2.544 7.079 -1.51 3.611 0 0 Z"/>
<path transform="translate(132,22)" fill="#0DA64C" d="M0 0 C1.663 6.297 -0.003 12.255 -3.035 17.941 C-6.131 22.129 -10.051 23.942 -15 25 C-17.726 25.209 -20.26 25.147 -23 25 C-23 24.34 -23 23.68 -23 23 C-19.04 21.515 -19.04 21.515 -15 20 C-15 19.01 -15 18.02 -15 17 C-14.35 14.724 -13.564 12.516 -12.773 10.285 C-11.902 7.847 -11.902 7.847 -11.25 4.625 C-10 2 -10 2 -6.562 0.062 C-3 -1 -3 -1 0 0 Z"/>
<path transform="translate(63,56)" fill="#0F9E48" d="M0 0 C0.33 0 0.66 0 1 0 C1.385 8.598 0.219 16.516 -1.438 24.938 C-2.964 32.8 -4.183 40.474 -4.742 48.466 C-5.053 51.524 -5.949 54.117 -7 57 C-7.957 61.468 -8.711 65.976 -9.5 70.477 C-9.748 71.838 -9.748 71.838 -10 73.227 C-10.217 74.458 -10.217 74.458 -10.438 75.713 C-11.009 78.037 -11.848 79.91 -13 82 C-13.33 82 -13.66 82 -14 82 C-13.646 72.584 -12.9 63.323 -11.5 54 C-11.369 53.122 -11.239 52.244 -11.104 51.339 C-10.133 45.133 -10.133 45.133 -9 44 C-8.706 42.664 -8.463 41.316 -8.246 39.965 C-8.114 39.156 -7.982 38.347 -7.846 37.514 C-7.711 36.664 -7.576 35.813 -7.438 34.938 C-7.299 34.083 -7.16 33.229 -7.018 32.35 C-6.675 30.234 -6.337 28.117 -6 26 C-5.34 26 -4.68 26 -4 26 C-3.963 25.38 -3.925 24.76 -3.887 24.121 C-3.278 15.916 -1.723 8.028 0 0 Z"/>
<path transform="translate(115,160)" fill="#BCBDBC" d="M0 0 C0.33 0 0.66 0 1 0 C1.226 6.878 0.639 13.298 -1 20 C-2.528 21.528 -3.892 21.126 -6.024 21.127 C-7.324 21.131 -7.324 21.131 -8.65 21.136 C-9.608 21.134 -10.566 21.131 -11.553 21.129 C-12.556 21.131 -13.559 21.133 -14.593 21.135 C-17.926 21.139 -21.26 21.136 -24.594 21.133 C-26.899 21.133 -29.205 21.134 -31.51 21.136 C-36.349 21.137 -41.188 21.135 -46.027 21.13 C-52.245 21.125 -58.463 21.128 -64.681 21.134 C-69.444 21.138 -74.207 21.136 -78.969 21.134 C-81.263 21.133 -83.556 21.134 -85.85 21.136 C-89.049 21.139 -92.248 21.135 -95.447 21.129 C-96.884 21.132 -96.884 21.132 -98.35 21.136 C-99.217 21.133 -100.083 21.13 -100.976 21.127 C-101.734 21.127 -102.491 21.126 -103.271 21.126 C-105 21 -105 21 -106 20 C-105.909 17.299 -105.763 14.631 -105.562 11.938 C-105.51 11.179 -105.458 10.42 -105.404 9.639 C-105.274 7.759 -105.138 5.879 -105 4 C-104.67 4 -104.34 4 -104 4 C-103.973 5.562 -103.953 7.125 -103.938 8.688 C-103.926 9.558 -103.914 10.428 -103.902 11.324 C-104 14 -104 14 -105 19 C-71.34 19 -37.68 19 -3 19 C-1.836 12.599 -0.728 6.428 0 0 Z"/>
<path transform="translate(61.73046875,15.0859375)" fill="#093C09" d="M0 0 C1.839 0.032 1.839 0.032 3.716 0.064 C6.311 0.111 8.905 0.159 11.5 0.211 C15.399 0.288 19.298 0.356 23.197 0.422 C30.556 0.553 37.912 0.723 45.27 0.914 C46.887 0.953 46.887 0.953 48.538 0.992 C51.466 1.067 54.393 1.162 57.32 1.266 C58.165 1.286 59.01 1.306 59.881 1.327 C64.4 1.514 67.679 1.867 71.27 4.914 C72.082 8.602 72.082 8.602 72.27 11.914 C70.27 8.914 70.27 8.914 69.27 6.914 C64.5 4.662 59.816 3.812 54.572 3.709 C53.21 3.679 53.21 3.679 51.821 3.648 C50.845 3.632 49.869 3.615 48.863 3.598 C47.838 3.577 46.812 3.556 45.755 3.535 C42.427 3.469 39.098 3.41 35.77 3.352 C33.496 3.309 31.222 3.266 28.948 3.223 C12.72 2.927 -3.5 2.776 -19.73 2.914 C-20.401 6.517 -21.067 10.122 -21.73 13.727 C-21.921 14.751 -22.112 15.775 -22.309 16.83 C-22.489 17.813 -22.67 18.796 -22.855 19.809 C-23.023 20.715 -23.191 21.621 -23.363 22.554 C-23.807 25.01 -23.807 25.01 -23.73 27.914 C-23.07 28.244 -22.41 28.574 -21.73 28.914 C-21.73 29.574 -21.73 30.234 -21.73 30.914 C-23.05 30.584 -24.37 30.254 -25.73 29.914 C-27.175 25.062 -26.332 20.849 -25.48 15.977 C-25.358 15.191 -25.236 14.405 -25.109 13.596 C-24.33 8.985 -23.603 4.707 -20.73 0.914 C-13.867 -0.452 -6.969 -0.143 0 0 Z"/>
<path transform="translate(58.875,39.3125)" fill="#088536" d="M0 0 C1.049 0.079 2.099 0.157 3.18 0.238 C5.982 0.666 7.779 1.125 10.125 2.688 C11.562 5.562 11.562 5.562 12.125 8.688 C11.179 10.06 10.166 11.386 9.125 12.688 C8.264 15.652 7.676 18.652 7.125 21.688 C6.795 21.688 6.465 21.688 6.125 21.688 C5.795 19.707 5.465 17.727 5.125 15.688 C3.475 24.597 1.825 33.507 0.125 42.688 C-0.205 42.688 -0.535 42.688 -0.875 42.688 C-0.361 35.669 0.315 28.677 1.125 21.688 C1.249 20.593 1.249 20.593 1.376 19.477 C1.773 16.12 2.303 12.975 3.125 9.688 C0.155 8.697 -2.815 7.707 -5.875 6.688 C-5.215 6.358 -4.555 6.028 -3.875 5.688 C-5.195 4.038 -6.515 2.388 -7.875 0.688 C-5.103 -0.698 -3.075 -0.252 0 0 Z"/>
<path transform="translate(97,62)" fill="#15D651" d="M0 0 C0.66 0 1.32 0 2 0 C1.61 8.738 0.535 16.876 -1.305 25.43 C-2.116 29.593 -2.524 33.697 -2.789 37.926 C-3 40 -3 40 -4 42 C-4.182 43.83 -4.322 45.665 -4.438 47.5 C-4.801 52.261 -5.449 56.802 -6.457 61.465 C-7.419 65.955 -8.192 70.48 -9 75 C-9.33 75 -9.66 75 -10 75 C-10.705 61.723 -8.798 49.043 -6.692 35.961 C-6.121 32.415 -5.569 28.867 -5.02 25.318 C-4.662 23.044 -4.304 20.77 -3.945 18.496 C-3.781 17.445 -3.616 16.394 -3.446 15.311 C-2.599 10.077 -1.597 5.058 0 0 Z"/>
<path transform="translate(115,40)" fill="#0DA44B" d="M0 0 C-1 2 -1 2 -2.82 2.711 C-3.581 2.93 -4.341 3.149 -5.125 3.375 C-9.514 4.744 -13.094 6.59 -17 9 C-17.33 8.34 -17.66 7.68 -18 7 C-25.352 14.932 -25.636 23.535 -27 34 C-27.33 34 -27.66 34 -28 34 C-28.328 28.644 -27.735 23.64 -26.75 18.375 C-26.518 17.125 -26.286 15.874 -26.047 14.586 C-24.611 9.668 -22.675 6.117 -18.375 3.25 C-12.368 1.025 -6.411 -0.149 0 0 Z M-18 9 C-17.67 9 -17.34 9 -17 9 C-14.704 18.41 -14.704 18.41 -15 23 C-17 22 -17 22 -18.188 18.812 C-18.992 15.039 -18.904 12.705 -18 9 Z M-29 34 C-28.67 34 -28.34 34 -28 34 C-28 36.64 -28 39.28 -28 42 C-28.33 42 -28.66 42 -29 42 C-29 39.36 -29 36.72 -29 34 Z M-30 42 C-29.67 42 -29.34 42 -29 42 C-29 43.98 -29 45.96 -29 48 C-29.33 48 -29.66 48 -30 48 C-30 46.02 -30 44.04 -30 42 Z M-31 48 C-30.67 48 -30.34 48 -30 48 C-30.33 52.29 -30.66 56.58 -31 61 C-31.33 61 -31.66 61 -32 61 C-32.027 59.583 -32.047 58.167 -32.062 56.75 C-32.074 55.961 -32.086 55.172 -32.098 54.359 C-32.004 52.093 -31.632 50.171 -31 48 Z M-33 61 C-32.67 61 -32.34 61 -32 61 C-32 63.31 -32 65.62 -32 68 C-32.33 68 -32.66 68 -33 68 C-33 65.69 -33 63.38 -33 61 Z M-34 68 C-33.67 68 -33.34 68 -33 68 C-33 69.98 -33 71.96 -33 74 C-33.33 74 -33.66 74 -34 74 C-34 72.02 -34 70.04 -34 68 Z M-35 74 C-34.67 74 -34.34 74 -34 74 C-34 76.31 -34 78.62 -34 81 C-34.33 81 -34.66 81 -35 81 C-35 78.69 -35 76.38 -35 74 Z"/>
<path transform="translate(108,148)" fill="#19C465" d="M0 0 C0.99 0.66 1.98 1.32 3 2 C3.608 7.837 2.281 13.317 1 19 C-2.695 19.95 -5.305 19.95 -9 19 C-8.691 16.895 -8.377 14.791 -8.062 12.688 C-7.888 11.516 -7.714 10.344 -7.535 9.137 C-7 6 -7 6 -6 3 C-4.062 2.438 -4.062 2.438 -2 2 C-1.34 1.34 -0.68 0.68 0 0 Z"/>
<path transform="translate(70,53)" fill="#088537" d="M0 0 C0.33 0 0.66 0 1 0 C1 3.3 1 6.6 1 10 C-0.32 9.67 -1.64 9.34 -3 9 C-2.01 6.03 -1.02 3.06 0 0 Z M-5 10 C-4.01 10.33 -3.02 10.66 -2 11 C-1.67 11.99 -1.34 12.98 -1 14 C-1.667 15.333 -2.333 16.667 -3 18 C-2.67 18.99 -2.34 19.98 -2 21 C-2.085 22.733 -2.236 24.464 -2.438 26.188 C-2.539 27.089 -2.641 27.99 -2.746 28.918 C-2.83 29.605 -2.914 30.292 -3 31 C-3.66 30.01 -4.32 29.02 -5 28 C-5.66 28.33 -6.32 28.66 -7 29 C-6.378 22.661 -5.715 16.329 -5 10 Z M-5 31 C-4.67 32.32 -4.34 33.64 -4 35 C-5.98 35.99 -5.98 35.99 -8 37 C-7.691 38.423 -7.691 38.423 -7.375 39.875 C-7.189 41.422 -7.189 41.422 -7 43 C-7.66 43.66 -8.32 44.32 -9 45 C-10.243 42.515 -9.954 41.236 -9.625 38.5 C-9.535 37.706 -9.445 36.912 -9.352 36.094 C-9 34 -9 34 -8 32 C-7.01 31.67 -6.02 31.34 -5 31 Z M-7 43 C-6.01 43.495 -6.01 43.495 -5 44 C-5 45.32 -5 46.64 -5 48 C-5.66 48 -6.32 48 -7 48 C-7 46.35 -7 44.7 -7 43 Z M-10 45 C-9.34 46.32 -8.68 47.64 -8 49 C-8.66 49.66 -9.32 50.32 -10 51 C-10 52.031 -10 53.062 -10 54.125 C-10 58.49 -10.825 61.816 -12 66 C-12.33 66 -12.66 66 -13 66 C-13.199 52.517 -13.199 52.517 -12 47 C-11.34 46.34 -10.68 45.68 -10 45 Z"/>
<path transform="translate(95,60)" fill="#4CE7AF" d="M0 0 C0.33 0 0.66 0 1 0 C1.199 7.118 0.448 13.775 -0.68 20.797 C-0.853 21.908 -1.025 23.018 -1.203 24.162 C-1.754 27.693 -2.314 31.221 -2.875 34.75 C-3.244 37.104 -3.613 39.458 -3.98 41.812 C-4.663 46.173 -5.349 50.534 -6.039 54.894 C-7.045 61.259 -8.024 67.629 -9 74 C-11.198 70.703 -11.21 70.291 -10.736 66.596 C-10.571 65.26 -10.571 65.26 -10.403 63.897 C-10.27 62.941 -10.137 61.985 -10 61 C-9.87 60.033 -9.74 59.066 -9.606 58.07 C-9.162 54.863 -8.696 51.66 -8.223 48.457 C-8.051 47.289 -7.88 46.121 -7.703 44.918 C-7.342 42.465 -6.98 40.012 -6.616 37.559 C-6.063 33.814 -5.517 30.068 -4.971 26.322 C-4.618 23.93 -4.264 21.537 -3.91 19.145 C-3.668 17.474 -3.668 17.474 -3.421 15.77 C-2.612 10.365 -1.672 5.205 0 0 Z"/>
<path transform="translate(30,43)" fill="#2A4A2B" d="M0 0 C0.33 0 0.66 0 1 0 C1 1.98 1 3.96 1 6 C9.58 6.66 18.16 7.32 27 8 C26.67 9.32 26.34 10.64 26 12 C25.67 11.34 25.34 10.68 25 10 C23.872 9.962 23.872 9.962 22.721 9.924 C19.335 9.808 15.949 9.686 12.562 9.562 C11.378 9.523 10.194 9.484 8.975 9.443 C7.288 9.381 7.288 9.381 5.566 9.316 C4.524 9.28 3.482 9.243 2.408 9.205 C0 9 0 9 -1 8 C-1.235 2.471 -1.235 2.471 0 0 Z M10 2 C12.041 1.945 14.083 1.907 16.125 1.875 C17.83 1.84 17.83 1.84 19.57 1.805 C23.09 2.005 25.762 2.626 29 4 C29.33 4.66 29.66 5.32 30 6 C30.66 6 31.32 6 32 6 C31.885 7.584 31.758 9.167 31.625 10.75 C31.555 11.632 31.486 12.513 31.414 13.422 C31.001 15.991 30.288 17.758 29 20 C29.058 19.408 29.116 18.817 29.176 18.207 C29.243 17.022 29.243 17.022 29.312 15.812 C29.371 15.035 29.429 14.258 29.488 13.457 C28.742 9.7 26.984 8.317 24 6 C20.448 4.978 20.448 4.978 16.688 4.688 C15.433 4.547 14.179 4.406 12.887 4.262 C11.934 4.175 10.981 4.089 10 4 C10 3.34 10 2.68 10 2 Z"/>
<path transform="translate(47,136)" fill="#077D2E" d="M0 0 C0.33 0 0.66 0 1 0 C1 1.98 1 3.96 1 6 C1.99 5.67 2.98 5.34 4 5 C3.34 7.31 2.68 9.62 2 12 C0.68 12 -0.64 12 -2 12 C-2.33 13.65 -2.66 15.3 -3 17 C-7.056 16.532 -10.466 16.12 -14 14 C-12.02 13.34 -10.04 12.68 -8 12 C-13.94 11.67 -19.88 11.34 -26 11 C-26 13.31 -26 15.62 -26 18 C-26.33 18 -26.66 18 -27 18 C-27 15.36 -27 12.72 -27 10 C-23.327 9.227 -19.921 8.975 -16.188 9.062 C-11.226 9.13 -6.774 8.291 -2 7 C-1.34 4.69 -0.68 2.38 0 0 Z"/>
<path transform="translate(132,27)" fill="#074C0E" d="M0 0 C0.33 0 0.66 0 1 0 C0.835 7.169 -0.123 13.47 -5 19 C-11.28 23.338 -17.822 23.332 -25.215 22.848 C-27.973 22.773 -27.973 22.773 -29.867 24.172 C-31.389 26.627 -31.299 28.321 -31.188 31.188 C-31.16 32.089 -31.133 32.99 -31.105 33.918 C-31.071 34.605 -31.036 35.292 -31 36 C-31.33 36 -31.66 36 -32 36 C-34.546 27.163 -34.546 27.163 -33 23 C-31.875 21.25 -31.875 21.25 -30 20 C-26.245 19.19 -22.904 19.003 -19.062 19.125 C-13.931 19.155 -9.293 18.142 -5.457 14.559 C-1.972 10.154 -0.832 5.479 0 0 Z"/>
<path transform="translate(19,154)" fill="#066D1D" d="M0 0 C0.33 0 0.66 0 1 0 C1 5.61 1 11.22 1 17 C42.085 17.495 42.085 17.495 84 18 C82 20 82 20 78.615 20.209 C77.133 20.2 75.651 20.18 74.17 20.151 C73.361 20.143 72.553 20.135 71.72 20.127 C69.041 20.099 66.363 20.055 63.684 20.012 C61.828 19.988 59.972 19.965 58.117 19.943 C54.225 19.894 50.334 19.839 46.443 19.779 C41.443 19.701 36.444 19.637 31.444 19.577 C27.612 19.53 23.78 19.478 19.948 19.425 C18.104 19.399 16.26 19.375 14.416 19.352 C11.844 19.319 9.273 19.279 6.701 19.237 C5.547 19.224 5.547 19.224 4.369 19.21 C-0.886 19.114 -0.886 19.114 -2 18 C-2.403 11.822 -1.223 6.041 0 0 Z"/>
<path transform="translate(129,24)" fill="#1AC968" d="M0 0 C0.054 1.729 0.093 3.458 0.125 5.188 C0.148 6.15 0.171 7.113 0.195 8.105 C-0.009 11.128 -0.731 13.268 -2 16 C-4.64 16 -7.28 16 -10 16 C-9.01 11.05 -8.02 6.1 -7 1 C-1 0 -1 0 0 0 Z"/>
<path transform="translate(63,56)" fill="#1BCD6B" d="M0 0 C0.33 0 0.66 0 1 0 C1.387 8.769 0.225 16.955 -1.375 25.562 C-1.597 26.832 -1.818 28.101 -2.047 29.408 C-3.741 38.741 -3.741 38.741 -6 41 C-6.349 32.819 -5.015 25.161 -3.562 17.125 C-3.329 15.794 -3.097 14.464 -2.865 13.133 C-1.158 3.475 -1.158 3.475 0 0 Z M-7 41 C-6.67 41 -6.34 41 -6 41 C-6 42.65 -6 44.3 -6 46 C-6.33 46 -6.66 46 -7 46 C-7 44.35 -7 42.7 -7 41 Z"/>
<path transform="translate(21,147)" fill="#1AC969" d="M0 0 C5.61 0 11.22 0 17 0 C17 0.33 17 0.66 17 1 C16.157 1.121 15.314 1.242 14.445 1.367 C13.35 1.535 12.254 1.702 11.125 1.875 C10.034 2.037 8.944 2.2 7.82 2.367 C4.881 2.763 4.881 2.763 3 5 C1.828 9.092 1.898 13.079 1.938 17.312 C1.947 18.567 1.956 19.821 1.965 21.113 C1.976 22.066 1.988 23.019 2 24 C1.01 24.33 0.02 24.66 -1 25 C-1.33 24.67 -1.66 24.34 -2 24 C-1.934 21.277 -1.807 18.59 -1.625 15.875 C-1.581 15.127 -1.537 14.38 -1.492 13.609 C-1.203 8.998 -0.658 4.606 0 0 Z"/>
<path transform="translate(40,24)" fill="#12AD54" d="M0 0 C0.33 0 0.66 0 1 0 C1.66 5.28 2.32 10.56 3 16 C6.3 16.99 9.6 17.98 13 19 C13 19.33 13 19.66 13 20 C8.05 20 3.1 20 -2 20 C-3.131 15.477 -2.485 12.195 -1.562 7.75 C-1.415 7.005 -1.267 6.26 -1.115 5.492 C-0.751 3.66 -0.377 1.83 0 0 Z"/>
<path transform="translate(79,136)" fill="#0DA44B" d="M0 0 C0.33 0 0.66 0 1 0 C1.248 1.114 1.495 2.227 1.75 3.375 C2.61 7.046 2.61 7.046 5.125 8.438 C5.744 8.623 6.362 8.809 7 9 C7.33 8.34 7.66 7.68 8 7 C9.114 8.207 9.114 8.207 10.25 9.438 C12.753 11.77 13.718 12.635 17 13 C17 13.99 17 14.98 17 16 C4.388 14.686 4.388 14.686 0.5 10.312 C-0.252 6.833 -0.119 3.557 0 0 Z"/>
<path transform="translate(53,97)" fill="#08450C" d="M0 0 C1.348 3.795 0.716 6.863 0.039 10.777 C-0.071 11.426 -0.181 12.074 -0.294 12.742 C-0.647 14.809 -1.011 16.873 -1.375 18.938 C-1.613 20.322 -1.85 21.707 -2.086 23.092 C-2.998 28.407 -3.918 33.717 -5 39 C-5.66 39 -6.32 39 -7 39 C-6.333 31.321 -5.272 23.736 -4.062 16.125 C-3.893 15.011 -3.723 13.898 -3.549 12.75 C-3.379 11.68 -3.21 10.61 -3.035 9.508 C-2.809 8.064 -2.809 8.064 -2.578 6.59 C-2.024 4.108 -1.246 2.205 0 0 Z"/>
<path transform="translate(89,133)" fill="#083D09" d="M0 0 C0.33 0 0.66 0 1 0 C1.195 3.027 1.195 3.027 1.391 6.055 C1.832 8.136 1.832 8.136 3.707 9.258 C7.248 10.404 10.566 10.039 14.246 9.875 C17.232 10.011 19.306 10.748 22 12 C22 12.99 22 13.98 22 15 C21.156 14.666 20.311 14.332 19.441 13.988 C15.679 12.908 12.829 12.963 8.938 13.188 C2.576 13.315 2.576 13.315 -0.02 11.895 C-1.375 10.5 -1.375 10.5 -3 8 C-2.34 7.67 -1.68 7.34 -1 7 C-0.593 4.678 -0.256 2.343 0 0 Z"/>
<path transform="translate(70,53)" fill="#088536" d="M0 0 C0.33 0 0.66 0 1 0 C1 3.3 1 6.6 1 10 C-0.32 9.67 -1.64 9.34 -3 9 C-2.01 6.03 -1.02 3.06 0 0 Z M-5 10 C-4.01 10.33 -3.02 10.66 -2 11 C-1.67 11.99 -1.34 12.98 -1 14 C-1.667 15.333 -2.333 16.667 -3 18 C-2.67 18.99 -2.34 19.98 -2 21 C-2.121 23.262 -2.121 23.262 -2.438 25.688 C-2.539 26.496 -2.641 27.304 -2.746 28.137 C-2.872 29.059 -2.872 29.059 -3 30 C-3.66 29.34 -4.32 28.68 -5 28 C-5.66 28.33 -6.32 28.66 -7 29 C-6.378 22.661 -5.715 16.329 -5 10 Z"/>
<path transform="translate(118,39)" fill="#0FA84F" d="M0 0 C2.97 0.33 5.94 0.66 9 1 C6.673 5.654 5.822 5.921 1.242 7.473 C-2.251 8.294 -5.424 8.192 -9 8 C-9 7.34 -9 6.68 -9 6 C-8.434 5.818 -7.868 5.636 -7.285 5.449 C-6.552 5.198 -5.818 4.946 -5.062 4.688 C-3.966 4.322 -3.966 4.322 -2.848 3.949 C-0.641 3.088 -0.641 3.088 0 0 Z"/>
<path transform="translate(55,104)" fill="#1BCE6C" d="M0 0 C1.267 3.802 0.739 6.983 0.25 10.875 C0.112 12.003 0.112 12.003 -0.029 13.154 C-0.893 19.823 -1.869 26.606 -4 33 C-4.99 33.495 -4.99 33.495 -6 34 C-5.65 26.53 -4.397 19.27 -3 11.938 C-2.822 10.997 -2.644 10.056 -2.46 9.087 C-1.132 2.265 -1.132 2.265 0 0 Z"/>
<path transform="translate(53,45)" fill="#077928" d="M0 0 C2.64 0 5.28 0 8 0 C10.691 5.29 11.306 8.251 10.199 14.246 C10.026 15.23 10.026 15.23 9.85 16.234 C9.482 18.306 9.085 20.371 8.688 22.438 C8.431 23.851 8.176 25.264 7.924 26.678 C7.304 30.123 6.659 33.562 6 37 C5.67 37 5.34 37 5 37 C5.514 29.982 6.19 22.99 7 16 C7.083 15.27 7.166 14.541 7.251 13.789 C7.648 10.433 8.178 7.287 9 4 C6.03 3.01 3.06 2.02 0 1 C0 0.67 0 0.34 0 0 Z"/>
<path transform="translate(40,19)" fill="#08480C" d="M0 0 C0.33 0 0.66 0 1 0 C0.296 8.045 -0.815 16.014 -2 24 C-1.34 24.33 -0.68 24.66 0 25 C0 25.66 0 26.32 0 27 C-1.32 26.67 -2.64 26.34 -4 26 C-5.479 21.097 -4.561 16.797 -3.688 11.875 C-3.557 11.064 -3.426 10.253 -3.291 9.418 C-2.634 5.576 -2.211 3.316 0 0 Z"/>
<path transform="translate(132,27)" fill="#08410A" d="M0 0 C0.33 0 0.66 0 1 0 C0.837 7.103 -0.069 13.572 -5 19 C-8.216 20.825 -11.444 22.012 -15 23 C-15.66 22.34 -16.32 21.68 -17 21 C-15 19 -15 19 -11.188 17.812 C-6.447 16.083 -4.133 13.534 -2 9 C-1.097 6.026 -0.467 3.071 0 0 Z"/>
<path transform="translate(40,148)" fill="#0B9D49" d="M0 0 C-1 1 -1 1 -4.062 1.062 C-5.517 1.032 -5.517 1.032 -7 1 C-7 0.67 -7 0.34 -7 0 C-2.25 -1.125 -2.25 -1.125 0 0 Z M-10.375 0.875 C-8.704 0.937 -8.704 0.937 -7 1 C-7.99 1.66 -8.98 2.32 -10 3 C-10.99 4.485 -10.99 4.485 -12 6 C-12 5.34 -12 4.68 -12 4 C-12.99 4 -13.98 4 -15 4 C-14.67 5.65 -14.34 7.3 -14 9 C-14.66 9 -15.32 9 -16 9 C-16.33 12.63 -16.66 16.26 -17 20 C-17.33 20 -17.66 20 -18 20 C-18.379 8.155 -18.379 8.155 -16 3 C-14 1 -14 1 -10.375 0.875 Z M-17 20 C-15.35 20 -13.7 20 -12 20 C-12 20.33 -12 20.66 -12 21 C-13.65 21 -15.3 21 -17 21 C-17 20.67 -17 20.34 -17 20 Z"/>
<path transform="translate(108,148)" fill="#1ACC6A" d="M0 0 C1.485 0.99 1.485 0.99 3 2 C3.537 7.37 2.437 11.881 1 17 C0.67 17 0.34 17 0 17 C0.012 16.096 0.023 15.193 0.035 14.262 C0.044 13.082 0.053 11.903 0.062 10.688 C0.074 9.516 0.086 8.344 0.098 7.137 C0.149 3.969 0.149 3.969 -1 1 C-0.67 0.67 -0.34 0.34 0 0 Z M-2 2 C-0.639 4.722 -1.296 6.183 -1.938 9.125 C-2.132 10.035 -2.327 10.945 -2.527 11.883 C-2.683 12.581 -2.839 13.28 -3 14 C-3.33 14 -3.66 14 -4 14 C-4.054 12.375 -4.093 10.75 -4.125 9.125 C-4.148 8.22 -4.171 7.315 -4.195 6.383 C-4 4 -4 4 -2 2 Z M-6 3 C-5.01 3.495 -5.01 3.495 -4 4 C-4.99 4.495 -4.99 4.495 -6 5 C-6 4.34 -6 3.68 -6 3 Z"/>
<path transform="translate(106.73828125,19.90234375)" fill="#1AC365" d="M0 0 C1.067 0.003 2.133 0.006 3.232 0.01 C4.887 0.022 4.887 0.022 6.574 0.035 C7.696 0.04 8.818 0.044 9.975 0.049 C12.737 0.061 15.499 0.077 18.262 0.098 C17.135 1.593 17.135 1.593 15.262 3.098 C12.534 3.346 12.534 3.346 9.281 3.172 C7.536 3.09 7.536 3.09 5.756 3.006 C3.933 2.897 3.933 2.897 2.074 2.785 C0.848 2.724 -0.379 2.663 -1.643 2.6 C-4.675 2.446 -7.707 2.278 -10.738 2.098 C-10.738 1.768 -10.738 1.438 -10.738 1.098 C-7.092 0.257 -3.739 -0.02 0 0 Z"/>
<path transform="translate(94,55)" fill="#1ACA69" d="M0 0 C0.66 0.99 1.32 1.98 2 3 C1.125 6.688 1.125 6.688 0 10 C-0.33 10 -0.66 10 -1 10 C-0.67 6.7 -0.34 3.4 0 0 Z M2 0 C2.99 0.495 2.99 0.495 4 1 C3.67 4.63 3.34 8.26 3 12 C2.67 12 2.34 12 2 12 C2 8.04 2 4.08 2 0 Z M-2 10 C-1.67 10 -1.34 10 -1 10 C-0.923 14.516 -0.898 18.591 -2 23 C-4 20 -4 20 -3.758 17.52 C-3.549 16.626 -3.34 15.733 -3.125 14.812 C-2.921 13.911 -2.718 13.01 -2.508 12.082 C-2.34 11.395 -2.173 10.708 -2 10 Z"/>
<path transform="translate(88,134)" fill="#066516" d="M0 0 C1.033 2.788 1.045 3.868 0.062 6.75 C-0.288 7.493 -0.639 8.235 -1 9 C-1.66 9 -2.32 9 -3 9 C-3.33 6.69 -3.66 4.38 -4 2 C-2.68 2.33 -1.36 2.66 0 3 C0 2.01 0 1.02 0 0 Z M1 11 C3 12 3 12 3 12 Z M17 11 C17 11.33 17 11.66 17 12 C12.38 12.33 7.76 12.66 3 13 C3 12.67 3 12.34 3 12 C7.672 10.794 12.215 10.906 17 11 Z M17 12 C21 13 21 13 21 13 Z"/>
<path transform="translate(90,115)" fill="#13DA3F" d="M0 0 C1.281 3.842 0.701 7.073 0.188 11 C0.104 11.724 0.021 12.449 -0.064 13.195 C-0.52 16.802 -0.953 18.929 -3 22 C-3.027 19.437 -3.047 16.875 -3.062 14.312 C-3.071 13.591 -3.079 12.87 -3.088 12.127 C-3.105 8.309 -3.117 4.673 -2 1 C-1.34 0.67 -0.68 0.34 0 0 Z"/>
<path transform="translate(97,62)" fill="#0FC432" d="M0 0 C0.66 0 1.32 0 2 0 C1.858 2.209 1.711 4.417 1.562 6.625 C1.481 7.855 1.4 9.085 1.316 10.352 C1.033 13.615 0.59 16.779 0 20 C-0.66 20 -1.32 20 -2 20 C-2.264 13.135 -1.258 6.742 0 0 Z"/>
<path transform="translate(26,144)" fill="#074B0D" d="M0 0 C-3.75 2 -3.75 2 -6 2 C-6.33 7.28 -6.66 12.56 -7 18 C-7.33 18 -7.66 18 -8 18 C-8.224 16.106 -8.428 14.21 -8.625 12.312 C-8.741 11.257 -8.857 10.201 -8.977 9.113 C-9.001 5.83 -8.529 3.886 -7 1 C-4.537 -0.231 -2.72 -0.072 0 0 Z"/>
<path transform="translate(60,99)" fill="#088739" d="M0 0 C0.66 0.33 1.32 0.66 2 1 C1.67 1.516 1.34 2.031 1 2.562 C-0.206 5.062 -0.206 5.062 0 8.25 C0 12.553 -0.841 15.872 -2 20 C-2.33 20 -2.66 20 -3 20 C-3.201 6.404 -3.201 6.404 -2 1 C-1.34 0.67 -0.68 0.34 0 0 Z"/>
<path transform="translate(97,46)" fill="#1AC365" d="M0 0 C0.66 0.33 1.32 0.66 2 1 C1.188 2.938 1.188 2.938 0 5 C-0.99 5.33 -1.98 5.66 -3 6 C-4.685 7.997 -4.685 7.997 -6 10 C-5.586 5.167 -3.536 3.173 0 0 Z M-7 10 C-6 14 -6 14 -6 14 Z M-8 14 C-7.67 14 -7.34 14 -7 14 C-7 16.64 -7 19.28 -7 22 C-7.33 22 -7.66 22 -8 22 C-8 19.36 -8 16.72 -8 14 Z M-9 22 C-8 26 -8 26 -8 26 Z"/>
<path transform="translate(17,155)" fill="#093C09" d="M0 0 C0.33 0 0.66 0 1 0 C0.988 1.204 0.977 2.408 0.965 3.648 C0.955 5.224 0.946 6.799 0.938 8.375 C0.929 9.169 0.921 9.963 0.912 10.781 C0.77 15.024 0.77 15.024 2 19 C1.01 19 0.02 19 -1 19 C-1.831 12.762 -2.129 7.211 -1 1 C-0.67 0.67 -0.34 0.34 0 0 Z"/>
<path transform="translate(131,22)" fill="#0DB337" d="M0 0 C0.66 0.66 1.32 1.32 2 2 C1.898 4.68 1.898 4.68 1.375 7.875 C1.218 8.924 1.06 9.974 0.898 11.055 C0 14 0 14 -4 18 C-2.68 12.06 -1.36 6.12 0 0 Z"/>
<path transform="translate(42,19)" fill="#1CDA73" d="M0 0 C1.65 0.33 3.3 0.66 5 1 C4.529 1.552 4.059 2.103 3.574 2.672 C1.82 5.267 1.337 7.181 0.812 10.25 C0.654 11.142 0.495 12.034 0.332 12.953 C0.222 13.629 0.113 14.304 0 15 C-0.33 15 -0.66 15 -1 15 C-1.027 13.25 -1.046 11.5 -1.062 9.75 C-1.074 8.775 -1.086 7.801 -1.098 6.797 C-1.012 4.342 -0.707 2.338 0 0 Z"/>
<path transform="translate(63,56)" fill="#1BD06D" d="M0 0 C0.33 0 0.66 0 1 0 C1.223 6.728 0.95 12.54 -1 19 C-1.33 19 -1.66 19 -2 19 C-2.214 12.356 -1.512 6.468 0 0 Z"/>
<path transform="translate(123,26)" fill="#1CDF76" d="M0 0 C0.66 0 1.32 0 2 0 C1.859 1.605 1.712 3.209 1.562 4.812 C1.481 5.706 1.4 6.599 1.316 7.52 C1 10 1 10 0 13 C-0.66 13 -1.32 13 -2 13 C-2.167 8.079 -2.248 4.497 0 0 Z"/>
<path transform="translate(103,152)" fill="#1DE278" d="M0 0 C0.66 0.33 1.32 0.66 2 1 C1.913 2.605 1.804 4.209 1.688 5.812 C1.629 6.706 1.571 7.599 1.512 8.52 C0.937 11.306 0.179 12.241 -2 14 C-1.86 11.854 -1.713 9.708 -1.562 7.562 C-1.481 6.368 -1.4 5.173 -1.316 3.941 C-1 1 -1 1 0 0 Z"/>
<path transform="translate(107,150)" fill="#4CE7AF" d="M0 0 C2.11 3.377 2.091 5.338 1.25 9.188 C1.07 10.068 0.889 10.948 0.703 11.855 C0.471 12.563 0.239 13.271 0 14 C-0.99 14.495 -0.99 14.495 -2 15 C-1.859 12.875 -1.712 10.75 -1.562 8.625 C-1.481 7.442 -1.4 6.258 -1.316 5.039 C-1 2 -1 2 0 0 Z"/>
<path transform="translate(79,131)" fill="#1AC365" d="M0 0 C1.996 3.991 2.195 5.7 2 10 C1.67 10 1.34 10 1 10 C0.67 6.7 0.34 3.4 0 0 Z M6 9 C6.66 10.98 7.32 12.96 8 15 C6.125 14.75 6.125 14.75 4 14 C2.75 11.938 2.75 11.938 2 10 C4 9 4 9 6 9 Z"/>
<path transform="translate(103,146)" fill="#088536" d="M0 0 C1.279 0.103 2.558 0.206 3.875 0.312 C4.954 0.4 4.954 0.4 6.055 0.488 C8 1 8 1 10 4 C9.625 6.688 9.625 6.688 9 9 C8.67 9 8.34 9 8 9 C7.34 7.02 6.68 5.04 6 3 C4.35 3.66 2.7 4.32 1 5 C0.34 4.34 -0.32 3.68 -1 3 C-0.34 3 0.32 3 1 3 C0.67 2.01 0.34 1.02 0 0 Z"/>
<path transform="translate(125,17)" fill="#08450C" d="M0 0 C5.447 0.484 5.447 0.484 7.875 2.75 C9.182 5.363 9.24 7.115 9 10 C7 7 7 7 6 5 C5.175 4.691 4.35 4.381 3.5 4.062 C2.675 3.712 1.85 3.361 1 3 C0.67 2.01 0.34 1.02 0 0 Z"/>
<path transform="translate(132,27)" fill="#074F0F" d="M0 0 C0.33 0 0.66 0 1 0 C0.747 6.413 0.378 11.107 -4 16 C-4.99 16 -5.98 16 -7 16 C-5.824 14.546 -5.824 14.546 -4.625 13.062 C-1.666 8.972 -0.749 4.93 0 0 Z M-9 17 C-7 18 -7 18 -7 18 Z"/>
<path transform="translate(110,150)" fill="#13D93D" d="M0 0 C0.33 0 0.66 0 1 0 C1.226 5.419 0.467 9.775 -1 15 C-1.33 15 -1.66 15 -2 15 C-2.054 13.25 -2.093 11.5 -2.125 9.75 C-2.16 8.288 -2.16 8.288 -2.195 6.797 C-1.999 3.98 -1.446 2.391 0 0 Z"/>
<path transform="translate(128,24)" fill="#4CE7AF" d="M0 0 C0.33 0 0.66 0 1 0 C1.212 5.192 0.591 9.127 -1 14 C-1.66 14 -2.32 14 -3 14 C-2.692 11.853 -2.379 9.708 -2.062 7.562 C-1.888 6.368 -1.714 5.173 -1.535 3.941 C-1 1 -1 1 0 0 Z"/>
<path transform="translate(110,157)" fill="#07601A" d="M0 0 C0.33 0 0.66 0 1 0 C1.767 7.668 1.767 7.668 -0.113 10.934 C-1.5 12.562 -1.5 12.562 -4 15 C-4.66 14.67 -5.32 14.34 -6 14 C-4.625 12 -4.625 12 -3 10 C-2.34 10 -1.68 10 -1 10 C-0.67 6.7 -0.34 3.4 0 0 Z"/>
<path transform="translate(59,63)" fill="#08490D" d="M0 0 C0.33 0 0.66 0 1 0 C0.67 4.29 0.34 8.58 0 13 C-2 11 -2 11 -2.012 8.652 C-1.905 7.756 -1.798 6.861 -1.688 5.938 C-1.588 5.039 -1.489 4.141 -1.387 3.215 C-1 1 -1 1 0 0 Z"/>
<path transform="translate(63,42)" fill="#088C42" d="M0 0 C2.062 2.188 2.062 2.188 4 5 C3.75 7.812 3.75 7.812 3 10 C1.794 7.668 0.835 5.504 0 3 C-0.99 2.67 -1.98 2.34 -3 2 C-2.01 1.34 -1.02 0.68 0 0 Z"/>
<path transform="translate(21,147)" fill="#1CDB73" d="M0 0 C1.32 0 2.64 0 4 0 C3.551 1.482 3.09 2.961 2.625 4.438 C2.37 5.261 2.115 6.085 1.852 6.934 C1 9 1 9 -1 10 C-0.67 6.7 -0.34 3.4 0 0 Z"/>
<path transform="translate(88,134)" fill="#0A8B38" d="M0 0 C1.125 3.75 1.125 3.75 0 6 C-0.66 6 -1.32 6 -2 6 C-2.33 6.99 -2.66 7.98 -3 9 C-3.33 6.69 -3.66 4.38 -4 2 C-2.68 2.33 -1.36 2.66 0 3 C0 2.01 0 1.02 0 0 Z"/>
<path transform="translate(44,32)" fill="#088536" d="M0 0 C0.99 0.33 1.98 0.66 3 1 C2.67 2.65 2.34 4.3 2 6 C2.99 6.33 3.98 6.66 5 7 C4.01 7.33 3.02 7.66 2 8 C0.438 6.812 0.438 6.812 -1 5 C-0.688 2.312 -0.688 2.312 0 0 Z"/>
<path transform="translate(59,91)" fill="#0A9746" d="M0 0 C0.33 0 0.66 0 1 0 C1.33 2.31 1.66 4.62 2 7 C0.515 7.99 0.515 7.99 -1 9 C-0.67 6.03 -0.34 3.06 0 0 Z M3 6 C3.33 7.32 3.66 8.64 4 10 C3.34 9.67 2.68 9.34 2 9 C2.33 8.01 2.66 7.02 3 6 Z"/>
<path transform="translate(40,35)" fill="#1CDC74" d="M0 0 C0.33 0 0.66 0 1 0 C1.186 1.702 1.186 1.702 1.375 3.438 C1.684 5.201 1.684 5.201 2 7 C2.66 7.33 3.32 7.66 4 8 C2.35 8 0.7 8 -1 8 C-2 6 -2 6 -1.062 2.875 C-0.537 1.452 -0.537 1.452 0 0 Z"/>
<path transform="translate(24,157)" fill="#088536" d="M0 0 C1.98 0.495 1.98 0.495 4 1 C3.67 1.66 3.34 2.32 3 3 C2.34 3 1.68 3 1 3 C1 4.65 1 6.3 1 8 C0.34 8 -0.32 8 -1 8 C-0.67 5.36 -0.34 2.72 0 0 Z"/>
<path transform="translate(119,41)" fill="#08883C" d="M0 0 C2.64 0 5.28 0 8 0 C6.71 1.376 5.373 2.708 4 4 C3.34 4 2.68 4 2 4 C2 3.34 2 2.68 2 2 C1.34 2 0.68 2 0 2 C0 1.34 0 0.68 0 0 Z"/>
<path transform="translate(56,122)" fill="#088536" d="M0 0 C0.33 0 0.66 0 1 0 C2.125 6.75 2.125 6.75 1 9 C0.34 9 -0.32 9 -1 9 C-1.098 2.848 -1.098 2.848 -1 1 C-0.67 0.67 -0.34 0.34 0 0 Z"/>
<path transform="translate(61,94)" fill="#088536" d="M0 0 C0.66 0.66 1.32 1.32 2 2 C1.34 2.66 0.68 3.32 0 4 C-0.33 3.01 -0.66 2.02 -1 1 C-0.67 0.67 -0.34 0.34 0 0 Z M2 2 C2.99 2.495 2.99 2.495 4 3 C4 4.32 4 5.64 4 7 C3.34 7 2.68 7 2 7 C2 5.35 2 3.7 2 2 Z"/>
<path transform="translate(99,168)" fill="#08893D" d="M0 0 C2.31 0 4.62 0 7 0 C6.34 1.32 5.68 2.64 5 4 C4.34 4 3.68 4 3 4 C1.375 2 1.375 2 0 0 Z"/>
<path transform="translate(58,108)" fill="#088536" d="M0 0 C0.66 0 1.32 0 2 0 C1.34 3.63 0.68 7.26 0 11 C-0.33 11 -0.66 11 -1 11 C-1.027 9.542 -1.046 8.083 -1.062 6.625 C-1.074 5.813 -1.086 5.001 -1.098 4.164 C-1 2 -1 2 0 0 Z"/>
<path transform="translate(131,22)" fill="#1CDE75" d="M0 0 C-0.33 2.64 -0.66 5.28 -1 8 C-1.33 8 -1.66 8 -2 8 C-2.217 6.824 -2.217 6.824 -2.438 5.625 C-2.878 3.036 -2.878 3.036 -4 1 C-2 0 -2 0 0 0 Z"/>
<path transform="translate(36,40)" fill="#08460C" d="M0 0 C1.376 1.29 2.708 2.627 4 4 C4 4.66 4 5.32 4 6 C2.68 5.67 1.36 5.34 0 5 C-0.562 3.062 -0.562 3.062 -1 1 C-0.67 0.67 -0.34 0.34 0 0 Z"/>
<path transform="translate(104,147)" fill="#10AD52" d="M0 0 C0 0.66 0 1.32 0 2 C-1.65 2 -3.3 2 -5 2 C-5.33 1.34 -5.66 0.68 -6 0 C-3.509 -1.245 -2.589 -0.777 0 0 Z"/>
<path transform="translate(28,45)" fill="#DCDCDC" d="M0 0 C0.33 0 0.66 0 1 0 C1.33 2.31 1.66 4.62 2 7 C1.01 7 0.02 7 -1 7 C-0.67 4.69 -0.34 2.38 0 0 Z"/>
<path transform="translate(48,23)" fill="#088536" d="M0 0 C0.66 0 1.32 0 2 0 C0.25 4.875 0.25 4.875 -2 6 C-1.125 1.125 -1.125 1.125 0 0 Z"/>
<path transform="translate(20,167)" fill="#1DE278" d="M0 0 C0.66 0 1.32 0 2 0 C2.33 1.32 2.66 2.64 3 4 C2.01 4 1.02 4 0 4 C0 2.68 0 1.36 0 0 Z"/>
<path transform="translate(25,152)" fill="#088536" d="M0 0 C0.99 0 1.98 0 3 0 C3 0.99 3 1.98 3 3 C2.01 3.33 1.02 3.66 0 4 C0 2.68 0 1.36 0 0 Z"/>
</svg>